<?xml version="1.0" standalone="no"?><!DOCTYPE svg PUBLIC "-//W3C//DTD SVG 1.1//EN" "http://www.w3.org/Graphics/SVG/1.1/DTD/svg11.dtd"><svg t="1777636509726" class="icon" viewBox="0 0 1024 1024" version="1.1" xmlns="http://www.w3.org/2000/svg" p-id="5224" xmlns:xlink="http://www.w3.org/1999/xlink" width="200" height="200"><path d="M859.206 328.487v-0.367c0-1.1-0.367-2.936-1.101-5.138-0.734-2.936-2.57-6.606-4.772-10.277-4.037-6.24-7.34-10.643-9.175-12.846-1.835-2.569-3.304-6.606-4.038-9.175-2.202-5.873-8.074-8.442-8.441-15.048v-0.367s0-0.367-0.367-0.367c-5.873-5.873-20.554-13.58-20.554-13.58s-2.569-4.037-2.936-7.708c-5.505-8.441-15.048-9.91-23.122-15.415-4.038-2.936-8.442-5.505-14.314-5.138-3.304 0.734-5.873 3.67-9.176 5.872-2.57 1.835-5.138 4.038-8.075 6.607-1.1 1.1-3.303 2.569-4.77 3.67-2.937 2.202-6.607 5.138-9.543 8.442-2.57 2.936-5.139 6.606-7.708 6.606-2.57 0-3.67 0.734-5.872 1.101-2.937 1.101-5.139 1.468-8.075 0.367-3.303 1.468-5.872 3.67-9.91 4.037-2.202 3.67-6.973 4.405-9.175 8.442 0.367 4.771 0.734 8.075 1.1 12.846 0.735 0.734 2.57 0 2.203 1.468-0.734 2.202 0 4.037 0.734 5.505-6.606 7.708-11.01 17.985-12.846 30.096-1.835 12.112-6.606 23.49-6.24 36.336-3.303 1.835-4.404 6.973-8.44 6.973-5.873 0.367-8.075-9.175-14.315-9.91-1.1-6.606-8.074-6.973-8.074-14.68-0.734-0.734-2.57-0.734-4.405-0.734-1.468-3.67-6.606-4.405-8.808-7.34-0.367-1.469-0.367-3.304-0.734-4.772-4.772-1.835-6.974-6.607-11.378-8.809 0.367-8.441-5.506-10.276-7.34-16.516-1.469-1.468-3.67-2.57-5.506-4.037 0.734-9.176-10.644-6.24-10.277-15.048-1.835-1.835-4.771-1.835-6.24-4.405-1.1-1.468-0.733-4.037-1.467-5.872-1.101-2.57-3.67-4.037-3.303-6.24-5.139-1.834-10.644-3.303-16.15-4.404-2.936-1.1-2.936-5.138-5.138-6.606-5.138-0.367-8.074-3.67-8.442-8.075-7.34 0.367-4.77-8.808-13.58-6.606-3.67-1.468-4.037-5.505-5.872-8.809-1.1-1.468-2.936-2.569-4.037-4.404-0.734-1.468-0.367-3.303-1.835-4.404-1.468-0.734-3.67-0.734-5.873-0.734-0.734-2.937-1.835-5.139-3.67-6.607-1.835-0.367-2.202 0.734-4.037 0.367s-1.835-2.202-3.67-2.202c-5.139 1.835-8.075-4.037-11.378-4.771-3.67-1.101-7.34 0.734-9.543-2.936-1.468 1.1-5.138 0.367-6.606 1.468-4.405-2.937-11.378-0.734-15.782-2.937-2.937 2.937-6.24 0.367-9.543 0.735-2.202 0.367-5.138 2.202-8.075 4.037-5.872 3.67-11.744 6.606-13.947 12.846-2.202 0.734-4.77 1.468-5.505 4.037-0.367 2.202 3.303 2.57 1.835 4.771-0.734 1.468-3.67 0.734-4.404 2.202 0.367 4.038-2.202 5.139-3.303 8.075 0 2.202 2.202 1.835 1.835 4.404-1.468 2.936-1.835 8.442 0 11.011-1.468 4.037-0.734 10.644-1.835 16.516 0.734 2.57 4.404 5.873 4.037 9.176-0.367 1.835-2.202 1.835-2.202 4.037-0.367 2.202 1.835 3.303 0.734 4.771-4.404 2.57-6.974-2.202-10.277-2.936-3.303-0.367-6.973 1.835-10.277-1.1-0.734-7.708-4.404-17.618 0.735-22.022-4.772-2.937-1.836-6.607-2.937-13.58-0.367-1.468-1.1-2.57-1.1-4.038 0-2.569 1.834-5.138 1.467-6.973-0.367-2.202-3.67-2.936-5.138-4.771-2.202-2.57-4.037-5.139-5.505-8.442-0.734-0.734-2.203-1.468-3.67-1.468-1.102-6.24-5.506-8.809-8.075-13.58-4.405-0.367-6.607-5.505-10.277-6.973-1.468-0.735-3.303-0.368-4.771-0.735-2.57-1.1-2.936-3.303-5.506-4.037-4.037 4.037-9.91 0-14.68 0.367-2.203 0.367-4.405 1.835-6.607 1.835-2.936 0-5.872-1.468-8.809-1.1-1.835 0.366-4.037 1.834-6.606 2.201-2.202 0.367-5.138-0.367-6.607 0.367-1.468 0.367-1.835 2.203-3.303 2.937-4.771 2.569-9.91 3.303-15.048 4.404-1.468 1.468-2.936 3.303-3.67 5.505h-2.936c-1.835 4.405-7.708 4.405-10.277 8.442 0.367 6.973-7.708 5.872-6.973 13.213-1.836 1.835-4.772 2.569-5.873 5.505 7.708 5.139-3.67 11.378-1.835 18.351-2.57 0.734-5.505 1.101-7.34 2.203-1.102 2.202-1.836 4.77-1.836 8.441-3.67 1.835-5.872 4.771-6.239 9.91-4.404 0.367-5.505 4.037-8.809 5.505 1.468 4.772-3.67 5.506-4.037 9.176 0 2.202 1.468 2.202 1.468 5.138-1.1 6.24-8.441 5.873-11.378 9.91 0.734 2.569 0.367 4.404 0.734 6.973-1.1 1.835-3.303 2.937-1.835 5.873-3.67 2.936-7.34 10.643-4.404 16.149-0.734 2.202-3.303 3.303-2.936 6.606-1.468-0.367-2.57-0.734-4.037 0-2.937 7.708-8.075 12.846-13.947 17.25-1.101 0.367-2.203 0.367-3.67 0.367-3.304 4.772-8.075 8.81-9.91 14.681-0.367 1.102 0 3.304-0.734 4.405-0.734 1.1-2.57 2.202-4.038 4.037-2.936 3.303-4.037 6.24-8.074 6.974-0.367 1.1-0.367 2.569-0.734 3.67-4.038 3.67-8.075 8.808-10.644 14.68-1.835 3.671-4.771 9.91-5.138 13.948-1.101 13.213-1.835 24.59-4.772 35.601-1.1 4.772-2.936 12.112-3.67 16.883v10.277c1.468 1.101 2.57 2.202 2.936 4.771 0.734 6.607 1.835 16.517 1.468 22.022-0.367 5.138-2.202 9.91-1.468 16.883 0.367 5.872 3.304 11.745 4.038 17.984 0 1.835-0.367 3.303 0 5.139 0.367 1.835 1.468 3.303 1.468 5.138 1.1 8.809-2.937 18.351-2.202 29.362 0.734 11.745 5.872 22.756 6.239 33.766 0 3.67 1.101 9.176 0.734 11.745-0.734 6.607-7.708 10.277-9.543 15.782 0 5.506-1.1 11.378 0.734 17.25 0.734 2.57 3.67 5.139 5.139 8.075 1.468 3.303 2.202 6.606 3.67 9.543s3.303 5.505 4.771 8.441c1.468 3.303 1.835 6.974 3.67 10.644 1.469 3.67 4.405 5.872 5.873 9.175 1.468 3.304 3.303 6.974 3.67 11.378 0 1.468-0.367 3.303 0 5.139 1.101 4.404 5.139 8.074 6.607 12.845 0.734 2.57 0.367 5.506 1.1 8.442 0.368 1.468 1.469 2.936 1.836 4.404 1.835 6.974 2.57 16.15 4.771 24.958 2.57 9.543 7.34 16.15 7.708 26.793 0 1.101 0.367 1.101 1.1 2.202 0.735 0.367 1.469 1.101 2.937 1.101 19.452 0 48.08 4.404 55.788-9.176v-0.734c0.367-6.606-2.936-9.175-8.442-11.01-2.202-0.734-3.303-2.202-4.404-2.202-2.202-0.367-4.404 1.1-6.607 1.1-4.404 0-9.91-2.936-13.212-5.505-4.772-4.037-7.34-10.276-9.91-18.351-2.57-7.708-7.34-12.112-9.543-18.718-1.468-4.772-1.835-11.378-2.936-17.25-0.734-5.873-1.835-11.745-2.202-17.25-0.734-10.277 0.734-21.288 0.367-31.565-1.101-24.59 4.404-42.575 15.048-56.155-0.734 6.974 2.936 11.011 4.037 16.516 2.57 12.48-2.569 28.261-1.468 40.373 0.367 4.772 1.835 9.91 4.771 11.745 2.57 1.835 5.873 1.468 8.81 4.037 2.201 1.835 3.67 4.772 5.504 6.974 3.67 4.404 7.708 8.808 12.112 12.846 2.202 1.835 5.139 2.936 7.34 4.771 6.24 5.138 11.012 14.314 15.783 21.287 5.138 7.341 12.112 14.314 15.415 21.288 2.202 4.404 3.303 9.176 5.138 13.58 1.101 2.202 2.936 4.771 4.038 6.973 1.468 3.304 1.468 7.34 3.303 10.277 1.1 1.835 3.303 3.303 4.037 5.505 1.468 4.038-1.101 8.442 2.936 11.011 16.516 1.835 38.17 2.202 55.788 0.734 1.468-2.569 5.138-2.936 5.505-5.505 1.101-5.139-8.441-15.048-14.314-16.15-2.569-0.366-4.404 0-5.872-0.366-3.67-1.101-11.378-4.772-14.681-6.974-5.138-3.67-8.809-11.01-14.681-15.782-6.24-5.138-9.176-9.543-13.947-16.516-5.872-9.176-10.644-19.085-16.149-29.362-2.57-4.404-6.24-9.176-6.974-14.681-0.367-1.835 0-3.303 0-4.404-0.734-4.772-3.303-9.176-4.77-14.314-1.102-2.936-1.102-6.24-2.203-9.543-2.936-7.707-6.606-18.718-7.708-28.26-0.734-7.708 1.102-15.783 0.368-23.857-0.368-6.974-1.836-13.213-1.469-19.453 0.367-6.606 3.304-12.112 3.67-19.82 0.368-1.834 2.937-1.467 4.405-1.834 1.101-2.937 0.367-7.708 4.771-6.974 0.367-3.303 1.101-6.606 1.468-9.91 0.734-1.1 3.304-0.366 4.038-1.468 2.202-6.973 1.468-14.68 1.1-22.388 0-1.835 2.203-0.734 2.937-1.835 0.367-1.835-1.101-2.202-0.734-4.405 1.468-2.202 5.138-2.202 8.441-2.936 2.937-3.303 6.607-5.505 9.91-8.808 1.468 1.835-1.835 3.67-0.367 5.872 4.771-0.734 6.607 3.67 10.644 4.771 0.734 1.469 0.734 4.038 1.1 5.506 2.203 1.1 3.304-1.468 5.506-1.468 2.57 1.468 1.835 6.24 4.038 8.074 1.835 0.367 3.67 0.367 5.872 0.367 1.101 1.101 1.468 2.936 2.202 4.038 5.506 1.1 7.708 6.239 11.745 8.808 2.936 0 2.936-3.303 4.771-4.404 4.405-0.734 5.139 2.202 5.873 4.771 5.872-0.734 7.707 2.57 9.91 5.506 5.872-0.735 10.643 1.1 14.313 3.67 2.202 0 1.468-3.303 3.67-3.303 3.304 0.367 5.506 1.835 8.075 2.936 3.303-1.835 7.34-2.202 8.442 1.835 1.468 1.101 2.936-1.468 4.037-1.835 3.67 1.468 6.24-1.101 9.176-1.468 1.835 0.734 1.1 4.404 2.202 5.505 2.936-1.101 4.404-2.936 6.606-4.404 2.936 2.936 5.873-0.367 9.176-0.367 2.936 0 5.505 2.936 8.808 3.303 2.937 0.367 4.405-1.468 6.607 0.367 1.468 0 2.202-1.468 3.67-1.468 2.936 2.202 0 6.606-1.468 8.441 1.835 2.57 0 5.506-0.734 8.075 1.101 4.404 5.138 6.973 4.037 12.112 2.57 1.1 4.038 3.67 5.873 5.505 0 1.835-1.101 1.835-0.734 4.037 1.468 1.102 2.569-0.734 4.037-0.734 2.57 1.469 5.138 3.67 9.176 2.937 0 9.542-3.67 15.415-7.708 23.122-2.202 4.037-5.505 8.442-6.24 12.846-0.733 4.404 1.102 7.34 0.735 11.745-0.367 2.936-1.836 5.872-1.468 9.176 0.734 4.404 4.77 9.542 5.138 14.68 0.367 6.24-0.367 13.58-0.367 19.82 0 12.112-1.835 22.755-4.404 32.298-1.469 5.138-2.57 10.644-4.405 14.314-2.202 4.404-5.505 7.34-6.606 11.745-1.835 5.872-2.202 11.378-5.873 15.782 0.367 2.57-0.734 3.303-1.1 5.138 3.67 7.708-3.304 13.58-4.038 19.086-2.202 12.845 8.442 14.68 23.123 14.68h8.441c9.543 2.203 14.681-5.505 21.655-5.138 4.771 0 13.947 6.24 15.782-1.1 1.468-4.772-2.202-13.948-6.974-15.783-2.936-1.101-6.606-0.367-8.441-1.101-2.57-1.101-4.038-3.67-5.506-5.505-0.367-7.34 1.101-12.48 0.367-18.352-0.734-6.239-4.404-9.91-4.404-16.883 0-5.138 0.734-9.91 1.101-15.048 0.734-8.074 1.101-17.984 3.67-24.223 2.57-7.34 7.708-12.48 11.745-18.719 1.835-2.936 4.037-5.872 6.24-8.808 2.202-2.937 5.138-4.772 6.973-8.075 6.607-10.644 1.468-28.26 4.037-44.043 1.835-2.202 4.405-3.303 7.34-4.037 1.102-1.468 0.735-4.771 3.304-5.139-0.734 3.67 0 5.873-0.734 9.176-1.101 5.505-6.606 6.974-5.505 15.415 0.367 4.404 1.1 9.91 2.936 13.947 0.734 2.202 2.936 4.037 4.037 6.24 1.101 3.303 1.835 8.808 3.303 13.58 1.835 7.707 2.203 14.313 3.304 23.856 0.367 2.936 1.468 5.873 1.468 8.809 1.1 14.314 0 32.665-0.734 48.08-0.367 4.771 0 7.34-2.937 9.91-0.367 1.835 0.734 4.037 0.367 5.505s-2.202 2.936-2.936 5.138c-0.367 2.57 0 8.075 0.367 11.011 0.734 5.138 4.772 11.01 8.809 11.745 2.57 0.367 12.112 0 16.516 0 4.771 0 10.644-1.468 16.15-1.468 12.478-0.734 24.223 1.1 22.388-13.213-3.67-5.505-5.506-8.442-11.378-9.176-1.468-0.367-3.303 0.367-5.506 0-2.936-0.367-9.175-4.404-10.643-9.91-0.734-3.303-0.367-7.34-1.101-11.01-0.734-2.936-2.202-5.873-3.304-9.176-2.202-7.34-2.936-16.149-3.303-23.49-0.367-6.973-0.734-12.111 0-17.984 0.734-7.707 4.772-17.617 5.506-24.223 0.367-2.936-0.367-6.24 0.367-8.442 1.468-4.771 9.175-7.707 11.01-13.58 4.772-14.314-4.77-32.298 0.734-46.979 4.772 1.101 4.772-4.771 10.644-4.037 2.202-4.037 4.771-7.34 6.974-11.011 3.303 1.101 5.872 3.67 9.175 2.936 3.67-0.734 2.936-5.872 5.873-8.074 2.569 3.303 1.835 9.542 5.505 11.744 3.67-2.202 1.835-9.542 2.936-14.314 6.24-1.835 6.24-12.478 5.139-19.452 2.936-1.468 3.67 1.835 6.606 1.101 1.835-7.707 1.835-17.617 8.809-20.553 1.835 5.505-0.734 15.782 3.303 19.452 3.303-1.1 4.037-5.138 5.872-7.707 3.304 3.67 7.34 0.734 9.91-1.468 1.835 1.1 1.835 4.77 5.138 4.404 0.367 1.835 0 4.037 1.468 4.771 3.304-2.569 7.34-4.404 9.91-7.707 3.303 4.771 6.607 0.367 9.91-1.468 3.67 1.468 1.835 8.441 5.505 9.91 2.57-0.735 1.468-4.405 2.202-6.24 0.734-2.202 2.57-3.303 3.67-4.772 5.139 1.102 10.277 2.203 11.378-3.303 2.202 2.936 1.835 8.809 4.772 11.011 4.771-1.835 3.303-8.809 5.138-13.213 1.468-3.303 4.404-3.67 5.505-6.24 3.67 0.368 5.139-3.303 8.442-2.201 2.57 0.734 1.101 3.67 4.037 4.404 3.303-1.468 1.468-8.075 3.303-11.01 3.67 0 5.506 1.834 7.708 3.67 5.505-1.836 6.24-8.442 9.91-11.745 2.936 0.734 3.67-0.368 5.138-1.469 2.57 0.734 2.202 4.038 4.771 4.405 6.607 0.734 2.937-11.011 3.304-16.883 0-1.836 1.1-4.405 1.468-6.974 0.734-2.57 0.734-5.872 1.1-6.973 1.469-2.937 5.873-2.937 5.14-6.974 4.403-2.202 6.606-6.606 8.44-11.01l-1.1-3.304c1.1-2.202 3.67-3.303 5.505-4.771-1.835-2.936-0.734-4.772 0.734-7.708-0.367-1.1-1.835-1.1-1.835-2.202 2.202-4.037 2.57-9.91 6.24-12.112 0-6.24 1.1-11.01 4.77-13.58 2.203-6.606 5.506-12.478 5.873-20.553 1.468-1.835 4.037-1.835 4.771-4.404 0-2.202-2.936-1.835-4.404-2.937 2.57-2.936-1.468-6.239 1.468-8.808 0-2.202-2.202-1.835-2.202-4.037-0.367-4.405 1.468-6.607 2.936-9.543-1.835-2.936-1.835-7.708-1.835-12.846 0.367-1.835 2.936-1.468 3.303-3.303-1.1-2.202-1.835-4.771-3.67-6.24 3.67-2.569 2.202-9.91 2.936-13.947-0.734-0.734-2.569-0.367-3.67-0.734-2.57-4.037 1.468-8.441 0.367-12.111-0.734-2.57-3.67-2.937-4.771-5.506 0-1.835 1.1-2.569 1.468-4.404 0-2.202-2.202-2.202-2.936-3.67 1.468-4.038 4.404-6.607 7.34-8.809 5.138 0 22.756 3.67 28.995 4.037 0.367 0 0.367 0 0.734-0.367l3.67-4.037 1.469-1.835c1.1-1.835 2.202-4.037 2.202-4.404 1.1-1.836 1.1-1.836 1.1-2.203z m-64.597-40.372c-5.138 0-9.175-4.038-9.175-9.176s4.037-9.176 9.175-9.176 9.176 4.038 9.176 9.176-4.037 9.176-9.176 9.176z" p-id="5225"></path></svg>